<svg width="606" height="588" viewBox="0 0 606 588" fill="none" xmlns="http://www.w3.org/2000/svg">
<path d="M561 294C561 357.225 537.785 418.248 495.761 465.485C453.738 512.723 395.832 542.885 333.037 550.246C270.243 557.606 206.931 541.653 155.123 505.415C103.314 469.176 66.6155 415.176 51.9943 353.665C37.373 292.154 45.847 227.416 75.8074 171.741C105.768 116.066 155.129 73.33 214.519 51.647C273.909 29.964 339.194 30.8434 397.978 54.1183C456.763 77.3931 504.954 121.443 533.404 177.905" stroke="white" stroke-width="12"/>
<path d="M243.78 275.98C249.72 275.98 254.31 277.6 257.55 280.84C260.97 284.08 262.68 288.58 262.68 294.34C262.68 295.78 262.5 297.31 262.14 298.93C261.96 300.37 261.69 301.63 261.33 302.71C258.99 302.35 256.38 302.08 253.5 301.9C250.62 301.54 247.2 301.36 243.24 301.36C235.5 301.36 227.67 302.08 219.75 303.52C211.83 304.78 204.27 305.86 197.07 306.76C192.93 316.3 189.15 325.57 185.73 334.57C182.31 343.39 179.34 351.49 176.82 358.87C174.48 366.25 172.59 372.64 171.15 378.04C169.89 383.44 169.17 387.49 168.99 390.19C183.57 387.13 198.24 384.52 213 382.36C227.94 380.2 243.6 378.58 259.98 377.5C261.96 380.56 263.58 383.89 264.84 387.49C266.28 391.09 267 394.96 267 399.1C267 400.18 267 401.35 267 402.61C267 403.87 266.82 405.13 266.46 406.39C261.42 406.21 256.11 406.03 250.53 405.85C244.95 405.85 237.66 405.85 228.66 405.85C222.72 405.85 217.05 405.94 211.65 406.12C206.43 406.48 201.12 406.93 195.72 407.47C190.32 408.01 184.56 408.73 178.44 409.63C172.5 410.53 165.75 411.61 158.19 412.87C149.91 409.63 141.9 401.71 134.16 389.11C137.22 382.63 141.45 372.82 146.85 359.68C152.43 346.36 159.45 328.63 167.91 306.49C159.81 303.97 154.5 299.47 151.98 292.99C152.88 292.09 155.49 291.01 159.81 289.75C164.13 288.31 169.44 286.87 175.74 285.43C178.44 278.41 180.69 272.29 182.49 267.07C184.47 261.85 186.18 256.99 187.62 252.49C189.06 247.81 190.32 243.31 191.4 238.99C192.66 234.49 193.83 229.63 194.91 224.41C188.61 224.05 183.66 222.34 180.06 219.28C176.46 216.04 174.66 211.9 174.66 206.86C174.66 205.42 174.84 203.71 175.2 201.73C175.74 199.75 176.28 198.04 176.82 196.6C180.42 197.14 183.84 197.5 187.08 197.68C190.5 197.86 194.91 197.95 200.31 197.95C211.65 197.95 222.27 197.68 232.17 197.14C242.07 196.42 250.98 195.7 258.9 194.98C267 194.26 273.93 193.63 279.69 193.09C285.45 192.37 289.86 192.01 292.92 192.01C297.06 192.01 300.75 194.17 303.99 198.49C307.23 202.81 309.66 208.93 311.28 216.85C305.7 216.31 301.11 215.95 297.51 215.77C294.09 215.59 291.03 215.5 288.33 215.5C278.43 215.5 269.34 216.04 261.06 217.12C252.96 218.02 245.13 219.01 237.57 220.09C236.49 221.71 235.23 223.78 233.79 226.3C232.53 228.82 230.82 232.33 228.66 236.83C226.5 241.33 223.8 247 220.56 253.84C217.5 260.68 213.72 269.23 209.22 279.49C216.06 278.41 222.45 277.6 228.39 277.06C234.51 276.34 239.64 275.98 243.78 275.98ZM443.745 305.14C448.425 305.14 452.115 306.76 454.815 310C457.515 313.24 458.865 317.74 458.865 323.5C458.865 324.94 458.775 326.47 458.595 328.09C458.415 329.53 458.145 330.79 457.785 331.87C454.005 330.97 449.865 330.43 445.365 330.25C444.285 338.17 441.405 346.54 436.725 355.36C432.045 364 426.375 372.19 419.715 379.93C413.055 387.49 405.765 394.15 397.845 399.91C389.925 405.67 382.095 409.54 374.355 411.52C350.235 410.98 332.595 404.68 321.435 392.62C310.455 380.74 304.965 362.11 304.965 336.73C304.965 318.19 308.385 300.28 315.225 283C322.065 265.54 331.155 250.06 342.495 236.56C353.835 223.06 366.795 212.26 381.375 204.16C396.135 195.88 411.435 191.74 427.275 191.74C439.695 191.74 449.325 194.35 456.165 199.57C463.185 204.79 466.695 212.17 466.695 221.71C466.695 228.01 465.165 233.86 462.105 239.26C459.225 244.66 454.365 250.51 447.525 256.81C443.385 255.55 439.785 253.39 436.725 250.33C433.665 247.09 431.775 243.4 431.055 239.26C437.175 234.76 441.495 230.62 444.015 226.84C446.535 223.06 447.795 218.56 447.795 213.34C447.795 205.06 442.845 200.92 432.945 200.92C424.845 200.92 416.115 203.98 406.755 210.1C397.575 216.04 388.305 224.68 378.945 236.02C365.625 252.04 355.905 268.6 349.785 285.7C343.665 302.62 340.605 321.7 340.605 342.94C340.605 350.86 341.415 358.06 343.035 364.54C344.655 371.02 346.815 376.69 349.515 381.55C352.215 386.41 355.365 390.28 358.965 393.16C362.745 396.04 366.795 397.66 371.115 398.02C376.875 396.76 382.635 393.88 388.395 389.38C394.155 384.7 399.375 379.3 404.055 373.18C408.915 366.88 412.965 360.22 416.205 353.2C419.625 346 421.695 339.16 422.415 332.68C417.375 333.76 412.515 334.84 407.835 335.92C403.335 336.82 399.015 337.27 394.875 337.27C389.475 337.27 384.705 335.92 380.565 333.22C376.605 330.52 373.905 326.83 372.465 322.15C375.705 320.35 380.385 318.46 386.505 316.48C392.805 314.5 399.465 312.7 406.485 311.08C413.505 309.28 420.345 307.84 427.005 306.76C433.845 305.68 439.425 305.14 443.745 305.14Z" fill="white"/>
<path d="M533.372 186.775C536.561 187.674 539.876 185.818 540.775 182.629L555.434 130.656C556.334 127.467 554.477 124.153 551.288 123.253C548.099 122.353 544.784 124.21 543.885 127.399L530.854 173.597L484.657 160.566C481.468 159.667 478.153 161.523 477.253 164.712C476.354 167.902 478.21 171.216 481.399 172.116L533.372 186.775ZM515.765 158.932L529.765 183.932L540.235 178.068L526.235 153.068L515.765 158.932Z" fill="white"/>
</svg>
