<?xml version="1.0" standalone="no"?>
<!DOCTYPE svg PUBLIC "-//W3C//DTD SVG 20010904//EN"
 "http://www.w3.org/TR/2001/REC-SVG-20010904/DTD/svg10.dtd">
<svg version="1.0" xmlns="http://www.w3.org/2000/svg"
 width="606.000000pt" height="606.000000pt" viewBox="0 0 606.000000 606.000000"
 preserveAspectRatio="xMidYMid meet">
<metadata>
Created by potrace 1.14, written by Peter Selinger 2001-2017
</metadata>
<g transform="translate(0.000000,606.000000) scale(0.100000,-0.100000)"
fill="#000000" stroke="none">
<path d="M2848 5665 c-1 -1 -37 -5 -78 -8 -76 -6 -267 -38 -350 -58 -25 -6
-49 -12 -55 -13 -84 -18 -280 -88 -410 -146 -759 -336 -1322 -1025 -1502
-1839 -14 -64 -27 -129 -29 -146 -5 -43 -14 -105 -20 -140 -13 -72 -12 -464 2
-575 40 -328 124 -612 263 -890 262 -524 684 -939 1215 -1196 191 -92 460
-185 607 -209 19 -3 57 -10 84 -15 138 -26 282 -38 460 -38 702 3 1348 268
1844 757 219 215 377 431 507 691 172 346 262 687 281 1068 l6 122 -62 0 -61
0 -1 -57 c-7 -353 -100 -731 -260 -1052 -132 -265 -267 -456 -461 -653 -68
-68 -157 -151 -198 -184 -394 -319 -829 -500 -1341 -561 -129 -15 -515 -8
-617 12 -11 2 -35 6 -53 9 -19 3 -68 12 -109 21 -41 9 -86 19 -100 21 -52 11
-279 88 -367 126 -126 54 -299 148 -408 221 -81 54 -162 113 -175 127 -3 3
-27 23 -55 45 -51 41 -240 227 -285 280 -14 17 -41 50 -60 75 -19 25 -37 47
-40 50 -13 11 -119 169 -158 237 -155 266 -287 625 -317 869 -4 27 -8 56 -10
64 -19 72 -27 486 -12 605 3 28 9 73 12 100 28 227 123 532 234 756 201 403
496 740 861 983 262 174 630 329 880 371 19 3 42 8 50 10 8 2 38 7 65 11 28 3
52 8 55 9 17 10 180 19 345 20 189 0 305 -8 400 -26 28 -6 62 -12 77 -14 53
-8 195 -44 293 -75 386 -124 717 -324 1005 -610 131 -130 174 -181 312 -370
31 -44 110 -182 105 -186 -2 -2 -90 21 -196 51 -159 45 -197 53 -214 43 -28
-14 -37 -27 -37 -54 0 -43 -4 -42 427 -164 78 -22 151 -40 162 -40 11 0 27 10
35 23 11 17 77 231 101 327 2 8 17 64 34 123 34 120 31 150 -14 161 -62 16
-69 2 -151 -301 -15 -56 -31 -100 -34 -98 -4 2 -31 44 -61 92 -196 321 -519
643 -846 846 -305 188 -711 335 -1028 372 -27 3 -81 9 -120 14 -66 8 -419 13
-427 6z"/>
<path d="M4195 4049 c-249 -24 -490 -152 -702 -373 -137 -142 -240 -299 -320
-486 -85 -199 -121 -378 -121 -595 -1 -457 181 -687 575 -732 109 -12 136 -8
218 30 258 123 519 431 593 702 l19 70 39 -3 c22 -1 49 -5 61 -7 19 -4 23 0
29 40 14 95 -18 174 -82 205 -37 18 -55 21 -118 16 -59 -4 -211 -30 -296 -51
-204 -48 -360 -101 -360 -123 0 -48 83 -122 153 -138 43 -10 133 -5 207 11 41
8 87 18 103 22 23 5 27 2 27 -18 0 -41 -56 -186 -101 -261 -102 -173 -228
-298 -351 -348 -50 -20 -62 -22 -96 -12 -116 35 -207 168 -248 362 -15 69 -22
311 -10 365 2 11 7 47 11 80 24 215 116 453 251 653 37 53 69 99 73 102 3 3
24 27 45 54 112 139 275 271 393 317 69 27 194 32 236 10 37 -20 56 -65 52
-128 -4 -68 -37 -125 -110 -190 l-56 -51 17 -41 c18 -45 79 -104 125 -120 27
-9 32 -6 84 52 97 107 134 196 129 308 -3 76 -27 133 -77 180 -58 56 -156 94
-257 98 -30 2 -57 4 -60 5 -3 1 -36 -1 -75 -5z"/>
<path d="M2838 4045 c-2 -2 -35 -6 -73 -9 -39 -3 -97 -8 -130 -11 -241 -24
-353 -30 -612 -30 l-262 0 -7 -40 c-21 -121 32 -203 144 -221 23 -4 44 -9 46
-13 11 -18 -97 -376 -163 -539 -23 -59 -30 -67 -61 -74 -75 -19 -200 -61 -200
-68 0 -22 53 -79 100 -108 30 -18 54 -38 52 -45 -7 -28 -258 -647 -293 -724
l-39 -85 32 -46 c46 -67 141 -160 181 -177 19 -8 45 -12 58 -10 28 6 195 32
259 40 25 3 63 8 85 11 30 5 576 15 699 14 17 0 18 7 14 78 -5 96 -54 214 -85
208 -10 -2 -56 -7 -103 -10 -47 -4 -98 -8 -115 -10 -16 -2 -59 -7 -95 -11 -36
-3 -72 -8 -80 -10 -8 -2 -37 -7 -65 -10 -27 -3 -61 -7 -75 -10 -14 -3 -38 -7
-55 -10 -40 -6 -231 -42 -273 -51 l-32 -7 6 39 c13 87 96 369 115 389 5 5 9
15 9 22 0 17 138 365 149 376 9 9 29 13 131 27 42 6 87 12 99 15 96 18 258 25
350 14 31 -3 60 -3 65 1 13 12 15 109 3 144 -15 47 -64 92 -113 106 -40 12
-156 9 -264 -5 -117 -15 -140 -16 -140 -11 0 14 96 228 181 404 70 143 93 182
109 183 11 1 23 2 28 3 4 1 36 6 72 10 36 4 79 9 95 11 112 14 177 18 305 18
80 -1 162 -4 183 -7 45 -7 45 -4 15 83 -14 40 -39 82 -64 110 -42 46 -42 46
-112 48 -38 1 -72 0 -74 -2z"/>
</g>
</svg>
